<?xml version="1.0" standalone="no"?>
<!DOCTYPE svg PUBLIC "-//W3C//DTD SVG 20010904//EN"
 "http://www.w3.org/TR/2001/REC-SVG-20010904/DTD/svg10.dtd">
<svg version="1.0" xmlns="http://www.w3.org/2000/svg"
 width="527.000000pt" height="319.000000pt" viewBox="0 0 527.000000 319.000000"
 preserveAspectRatio="xMidYMid meet">

<g transform="translate(0.000000,319.000000) scale(0.100000,-0.100000)"
fill="#000000" stroke="none">
<path d="M2495 3154 c-417 -62 -739 -209 -1055 -482 -122 -105 -300 -303 -300
-333 0 -43 273 -332 417 -442 227 -173 561 -320 838 -367 152 -26 405 -29 550
-5 409 66 771 254 1079 561 88 87 206 227 206 244 0 14 -73 106 -163 204 -280
304 -657 515 -1065 597 -81 16 -153 22 -292 24 -102 2 -198 1 -215 -1z m328
-199 c147 -31 292 -126 376 -246 225 -320 113 -768 -234 -939 -183 -90 -370
-90 -560 0 -149 72 -264 204 -320 371 -23 71 -28 101 -29 194 0 121 14 184 66
291 76 156 264 298 443 334 65 13 185 11 258 -5z m-743 -78 c0 -2 -18 -28 -41
-58 -52 -70 -114 -196 -136 -279 -13 -48 -18 -103 -18 -210 0 -124 3 -156 23
-220 31 -98 70 -173 131 -254 28 -36 48 -66 45 -66 -16 0 -223 105 -299 152
-159 99 -425 342 -425 389 0 50 239 273 415 388 122 80 305 174 305 158z
m1322 -48 c227 -114 489 -319 582 -456 28 -42 28 -43 10 -70 -32 -50 -229
-237 -310 -295 -111 -79 -223 -145 -312 -184 -42 -18 -78 -32 -79 -30 -2 2 21
40 52 84 64 93 110 196 131 295 18 87 18 242 -1 329 -19 90 -73 213 -129 294
-25 36 -46 67 -46 70 0 8 41 -6 102 -37z"/>
<path d="M2565 2799 c-111 -13 -231 -65 -255 -110 -7 -13 -11 -133 -11 -345 0
-367 -3 -353 78 -404 66 -42 175 -64 318 -63 175 0 295 33 355 98 l25 27 3
330 3 331 -45 42 c-53 51 -134 81 -257 95 -94 11 -114 11 -214 -1z m340 -68
c64 -23 102 -46 119 -75 9 -14 6 -22 -17 -41 -95 -83 -435 -98 -589 -26 -93
44 -97 78 -14 119 78 39 158 52 306 48 107 -2 148 -8 195 -25z m-430 -208 c28
-8 106 -17 175 -20 139 -6 262 11 333 46 22 11 44 18 49 15 11 -7 10 -111 -2
-133 -5 -10 -39 -31 -75 -46 -58 -25 -64 -30 -51 -43 13 -13 21 -13 69 6 31
11 58 18 61 15 8 -8 6 -101 -3 -133 -8 -32 -94 -77 -162 -86 -39 -5 -49 -10
-49 -25 0 -14 7 -19 29 -19 26 0 114 24 164 45 15 6 17 0 17 -59 0 -76 -13
-95 -85 -126 -134 -58 -412 -53 -533 9 -58 30 -72 54 -72 128 l0 63 40 -20
c33 -17 146 -49 173 -50 5 0 7 10 5 21 -2 17 -17 25 -76 40 -41 10 -89 28
-108 40 l-34 21 0 80 c0 44 3 78 8 76 58 -26 104 -39 117 -35 26 10 17 24 -27
42 -23 9 -54 25 -70 36 -26 19 -28 25 -28 95 l0 74 43 -21 c23 -12 65 -28 92
-36z"/>
<path d="M2628 2378 l-3 -63 -63 -3 -63 -3 3 -62 3 -62 63 -3 62 -3 0 -69 0
-70 60 0 59 0 3 68 3 67 63 3 62 3 0 64 0 65 -65 0 -64 0 -3 63 -3 62 -57 3
-57 3 -3 -63z"/>
<path d="M2533 1080 c3 -104 2 -190 -2 -190 -4 0 -16 9 -25 19 -62 68 -241 89
-346 40 -71 -34 -126 -89 -159 -158 -23 -49 -26 -69 -26 -156 0 -119 18 -167
90 -244 66 -70 128 -96 235 -96 95 0 155 21 200 68 14 15 28 27 33 27 4 0 7
-20 7 -45 l0 -45 60 0 60 0 0 485 0 485 -67 0 -66 0 6 -190z m-159 -221 c50
-12 110 -58 131 -100 9 -16 20 -53 25 -81 37 -195 -146 -337 -320 -248 -103
52 -142 202 -84 318 27 55 64 87 123 108 45 16 71 17 125 3z"/>
<path d="M3190 1209 c-116 -23 -245 -119 -302 -225 -76 -142 -77 -327 -1 -466
31 -58 123 -147 181 -177 173 -88 424 -59 562 65 120 108 170 303 124 479 -60
233 -307 374 -564 324z m203 -124 c136 -35 222 -133 245 -280 39 -243 -166
-444 -404 -395 -161 33 -261 149 -272 315 -11 177 82 317 239 359 70 19 122
19 192 1z"/>
<path d="M53 1204 c-10 -4 -13 -105 -13 -455 l0 -449 60 0 60 0 0 333 0 332
33 -52 c17 -28 93 -160 167 -293 l135 -240 39 2 40 3 157 280 c87 154 162 281
168 283 8 3 11 -95 11 -322 l0 -326 60 0 60 0 0 455 0 455 -60 0 -60 0 -21
-42 c-34 -67 -331 -581 -344 -596 -10 -11 -17 -5 -37 30 -66 116 -341 593
-344 597 -6 7 -98 11 -111 5z"/>
<path d="M1455 967 c-130 -34 -213 -123 -241 -258 -40 -191 53 -350 235 -403
116 -34 260 -8 340 60 l42 37 -37 38 -37 38 -33 -26 c-93 -70 -225 -70 -318 0
-34 27 -81 111 -71 127 4 6 115 10 272 10 l266 0 -5 78 c-8 134 -72 234 -181
282 -59 26 -165 34 -232 17z m184 -117 c48 -24 87 -70 101 -118 5 -20 10 -40
10 -44 0 -5 -94 -8 -210 -8 -115 0 -210 2 -210 4 0 21 37 97 58 120 60 64 175
85 251 46z"/>
<path d="M4205 969 c-42 -10 -135 -65 -135 -80 0 -5 -4 -9 -10 -9 -5 0 -10 20
-10 45 l0 45 -60 0 -60 0 0 -465 0 -465 60 0 60 0 0 170 c0 94 3 170 6 170 4
0 22 -13 40 -30 74 -65 227 -78 335 -28 78 36 114 71 151 146 31 62 33 74 33
167 0 87 -3 107 -26 156 -52 111 -151 177 -276 184 -37 2 -86 0 -108 -6z m138
-113 c96 -35 147 -110 148 -218 1 -145 -81 -232 -222 -233 -89 0 -151 37 -191
114 -97 186 75 404 265 337z"/>
<path d="M4876 969 c-82 -19 -134 -69 -156 -148 -22 -82 11 -160 81 -197 16
-8 79 -26 139 -39 164 -36 197 -60 170 -125 -29 -70 -197 -81 -314 -21 -32 17
-60 30 -61 29 -6 -7 -45 -88 -45 -93 0 -14 129 -65 193 -75 116 -20 241 4 300
58 65 59 76 185 21 243 -37 40 -73 55 -192 80 -53 11 -113 28 -132 38 -32 16
-35 22 -35 61 0 35 5 47 28 64 42 31 153 34 236 6 35 -11 64 -20 66 -18 10 12
35 70 35 81 0 46 -220 83 -334 56z"/>
</g>
</svg>
