<?xml version="1.0" standalone="no"?>
<!DOCTYPE svg PUBLIC "-//W3C//DTD SVG 20010904//EN"
 "http://www.w3.org/TR/2001/REC-SVG-20010904/DTD/svg10.dtd">
<svg version="1.0" xmlns="http://www.w3.org/2000/svg"
 width="311.000000pt" height="169.000000pt" viewBox="0 0 311.000000 169.000000"
 preserveAspectRatio="xMidYMid meet">

<g transform="translate(0.000000,169.000000) scale(0.100000,-0.100000)"
fill="#000000" stroke="none">
<path d="M1375 1664 c-417 -62 -739 -209 -1055 -482 -122 -105 -300 -303 -300
-333 0 -43 273 -332 417 -442 227 -173 561 -320 838 -367 152 -26 405 -29 550
-5 409 66 771 254 1079 561 88 87 206 227 206 244 0 14 -73 106 -163 204 -280
304 -657 515 -1065 597 -81 16 -153 22 -292 24 -102 2 -198 1 -215 -1z m328
-199 c147 -31 292 -126 376 -246 225 -320 113 -768 -234 -939 -183 -90 -370
-90 -560 0 -149 72 -264 204 -320 371 -23 71 -28 101 -29 194 0 121 14 184 66
291 76 156 264 298 443 334 65 13 185 11 258 -5z m-743 -78 c0 -2 -18 -28 -41
-58 -52 -70 -114 -196 -136 -279 -13 -48 -18 -103 -18 -210 0 -124 3 -156 23
-220 31 -98 70 -173 131 -254 28 -36 48 -66 45 -66 -16 0 -223 105 -299 152
-159 99 -425 342 -425 389 0 50 239 273 415 388 122 80 305 174 305 158z
m1322 -48 c227 -114 489 -319 582 -456 28 -42 28 -43 10 -70 -32 -50 -229
-237 -310 -295 -111 -79 -223 -145 -312 -184 -42 -18 -78 -32 -79 -30 -2 2 21
40 52 84 64 93 110 196 131 295 18 87 18 242 -1 329 -19 90 -73 213 -129 294
-25 36 -46 67 -46 70 0 8 41 -6 102 -37z"/>
<path d="M1445 1309 c-111 -13 -231 -65 -255 -110 -7 -13 -11 -133 -11 -345 0
-367 -3 -353 78 -404 66 -42 175 -64 318 -63 175 0 295 33 355 98 l25 27 3
330 3 331 -45 42 c-53 51 -134 81 -257 95 -94 11 -114 11 -214 -1z m340 -68
c64 -23 102 -46 119 -75 9 -14 6 -22 -17 -41 -95 -83 -435 -98 -589 -26 -93
44 -97 78 -14 119 78 39 158 52 306 48 107 -2 148 -8 195 -25z m-430 -208 c28
-8 106 -17 175 -20 139 -6 262 11 333 46 22 11 44 18 49 15 11 -7 10 -111 -2
-133 -5 -10 -39 -31 -75 -46 -58 -25 -64 -30 -51 -43 13 -13 21 -13 69 6 31
11 58 18 61 15 8 -8 6 -101 -3 -133 -8 -32 -94 -77 -162 -86 -39 -5 -49 -10
-49 -25 0 -14 7 -19 29 -19 26 0 114 24 164 45 15 6 17 0 17 -59 0 -76 -13
-95 -85 -126 -134 -58 -412 -53 -533 9 -58 30 -72 54 -72 128 l0 63 40 -20
c33 -17 146 -49 173 -50 5 0 7 10 5 21 -2 17 -17 25 -76 40 -41 10 -89 28
-108 40 l-34 21 0 80 c0 44 3 78 8 76 58 -26 104 -39 117 -35 26 10 17 24 -27
42 -23 9 -54 25 -70 36 -26 19 -28 25 -28 95 l0 74 43 -21 c23 -12 65 -28 92
-36z"/>
<path d="M1508 888 l-3 -63 -63 -3 -63 -3 3 -62 3 -62 63 -3 62 -3 0 -69 0
-70 60 0 59 0 3 68 3 67 63 3 62 3 0 64 0 65 -65 0 -64 0 -3 63 -3 62 -57 3
-57 3 -3 -63z"/>
</g>
</svg>
