<?xml version="1.0" encoding="UTF-8" standalone="no"?>
<svg
   version="1.0"
   width="668.5pt"
   height="78.199997pt"
   viewBox="0 0 668.5 78.199997"
   preserveAspectRatio="xMidYMid"
   id="svg11"
   sodipodi:docname="medopz_fuente_blanco.svg"
   inkscape:version="1.4.2 (f4327f4, 2025-05-13)"
   xmlns:inkscape="http://www.inkscape.org/namespaces/inkscape"
   xmlns:sodipodi="http://sodipodi.sourceforge.net/DTD/sodipodi-0.dtd"
   xmlns="http://www.w3.org/2000/svg"
   xmlns:svg="http://www.w3.org/2000/svg">
  <defs
     id="defs11" />
  <sodipodi:namedview
     id="namedview11"
     pagecolor="#080808"
     bordercolor="#999999"
     borderopacity="1"
     inkscape:showpageshadow="2"
     inkscape:pageopacity="0"
     inkscape:pagecheckerboard="0"
     inkscape:deskcolor="#d1d1d1"
     inkscape:document-units="pt"
     inkscape:zoom="0.93962723"
     inkscape:cx="451.7749"
     inkscape:cy="45.230703"
     inkscape:window-width="1920"
     inkscape:window-height="991"
     inkscape:window-x="-9"
     inkscape:window-y="-9"
     inkscape:window-maximized="1"
     inkscape:current-layer="svg11" />
  <path
     d="M 0.7,0.7 C 0.3,1.1 0,18.7 0,39.8 V 78.1 H 7.5 15 l 0.2,-30.5 0.3,-30.4 10,11.6 C 31,35.2 42,48.1 49.9,57.4 L 64.3,74.3 66.5,72 c 1.2,-1.3 11.9,-14 23.9,-28.2 11.9,-14.1 22.1,-25.7 22.7,-25.7 0.5,0 0.9,12 0.9,30 v 30 h 7 7 V 39.1 0 l -10.2,0.3 -10.2,0.3 -21.3,25 c -11.7,13.7 -21.7,25 -22.2,25 -0.5,0 -10.3,-11.3 -21.8,-25 L 21.4,0.6 11.4,0.3 C 5.9,0.2 1.1,0.3 0.7,0.7 Z"
     id="path6"
     style="fill:#ffffff;stroke:none;stroke-width:0.1" />
  <path
     d="m 150.5,1.3 c -0.3,0.7 -0.4,18.2 -0.3,38.8 l 0.3,37.5 h 41 41 V 70.1 62.6 H 199 165.5 l -0.3,-7.7 -0.3,-7.8 33.3,-0.2 33.3,-0.3 V 39.1 31.6 L 198.3,31.3 165,31.1 v -7.5 -7.5 l 33.8,-0.2 33.7,-0.3 V 8.1 0.6 L 191.7,0.3 c -32.1,-0.2 -40.9,0 -41.2,1 z"
     id="path7"
     style="fill:#ffffff;stroke:none;stroke-width:0.1" />
  <path
     d="m 388.7,1.2 c -9.2,2.2 -17.6,9.3 -20.7,17.5 -1.8,5 -2,7.8 -2,32.5 v 27 l 32.8,-0.3 c 31.9,-0.3 32.8,-0.4 37.9,-2.7 6.5,-2.9 12.4,-9.1 14.9,-15.7 1.7,-4.4 1.9,-7.7 1.9,-31.9 V 0.6 L 423,0.4 c -16.8,0 -32.2,0.3 -34.3,0.8 z m 50.1,32.4 c 0.4,28.7 0.8,28.3 -34.3,28.6 l -24,0.1 V 44.5 c 0,-15.2 0.3,-18.4 1.8,-21.1 3.4,-6.4 4.8,-6.7 28.7,-7.4 11.8,-0.3 22.9,-0.5 24.5,-0.5 l 3,0.1 z"
     id="path9"
     style="fill:#ffffff;stroke:none;stroke-width:0.1" />
  <path
     d="m 475.8,1.1 c -0.1,0.5 -0.2,18.1 0,39 l 0.2,38.1 7.3,-0.3 7.2,-0.3 0.1,-12 c 0.1,-6.6 0.2,-13.7 0.3,-15.8 l 0.1,-3.7 h 24.3 c 29,0 31.3,-0.5 39.4,-8.5 6.7,-6.7 8.3,-12 8.3,-26.7 V 0.1 h -43.4 c -28,0 -43.6,0.4 -43.8,1 z m 72,17.5 c 0.3,3.8 -2.8,8.9 -6.7,11 -2.6,1.3 -6.8,1.5 -26.8,1.3 l -23.8,-0.3 -0.3,-6.4 c -0.2,-3.5 -0.1,-6.9 0.1,-7.5 0.3,-0.8 9,-1.1 28.8,-1.1 h 28.4 z"
     id="path10"
     style="fill:#ffffff;stroke:none;stroke-width:0.1" />
  <path
     d="m 584.2,7.8 0.3,7.8 29.8,-0.1 c 16.3,-0.1 29.7,0.2 29.7,0.6 0,0.4 -6.6,5.5 -14.7,11.3 -8.2,5.8 -21.5,15.4 -29.8,21.4 l -15,10.8 v 9 9 h 42 42 v -7.5 -7.5 l -30.3,-0.3 c -17.3,-0.1 -30.2,-0.6 -30,-1.1 0.2,-0.5 13.8,-10.5 30.3,-22.3 l 30,-21.4 V 9.1 0.6 L 626.2,0.3 583.9,0.1 Z"
     id="path11"
     style="fill:#ffffff;stroke:none;stroke-width:0.1" />
  <path
     d="m 388.7,1.2 c -9.2,2.2 -17.6,9.3 -20.7,17.5 -1.8,5 -2,7.8 -2,32.5 v 27 l 32.8,-0.3 c 31.9,-0.3 32.8,-0.4 37.9,-2.7 6.5,-2.9 12.4,-9.1 14.9,-15.7 1.7,-4.4 1.9,-7.7 1.9,-31.9 V 0.6 L 423,0.4 c -16.8,0 -32.2,0.3 -34.3,0.8 z m 50.1,32.4 c 0.4,28.7 0.8,28.3 -34.3,28.6 l -24,0.1 V 44.5 c 0,-15.2 0.3,-18.4 1.8,-21.1 3.4,-6.4 4.8,-6.7 28.7,-7.4 11.8,-0.3 22.9,-0.5 24.5,-0.5 l 3,0.1 z"
     id="path1"
     style="fill:#ffffff;stroke:none;stroke-width:0.1" />
  <path
     d="m 321.44813,1.2 c 9.2,2.2 17.6,9.3 20.7,17.5 1.8,5 2,7.8 2,32.5 v 27 l -32.8,-0.3 c -31.9,-0.3 -32.8,-0.4 -37.9,-2.7 -6.5,-2.9 -12.4,-9.1 -14.9,-15.7 -1.7,-4.4 -1.9,-7.7 -1.9,-31.9 v -27 l 30.5,-0.2 c 16.8,0 32.2,0.3 34.3,0.8 z m -50.1,32.4 c -0.4,28.7 -0.8,28.3 34.3,28.6 l 24,0.1 V 44.5 c 0,-15.2 -0.3,-18.4 -1.8,-21.1 -3.4,-6.4 -4.8,-6.7 -28.7,-7.4 -11.8,-0.3 -22.9,-0.5 -24.5,-0.5 l -3,0.1 z"
     id="path2"
     style="fill:#ffffff;stroke:none;stroke-width:0.1" />
</svg>
