<?xml version="1.0" encoding="UTF-8" standalone="no"?>
<svg
   version="1.0"
   width="542.16949pt"
   height="300.53433pt"
   viewBox="0 0 542.16949 300.53433"
   preserveAspectRatio="xMidYMid"
   id="svg11"
   sodipodi:docname="medopz_logo_negro_solo.svg"
   inkscape:version="1.4.2 (f4327f4, 2025-05-13)"
   xmlns:inkscape="http://www.inkscape.org/namespaces/inkscape"
   xmlns:sodipodi="http://sodipodi.sourceforge.net/DTD/sodipodi-0.dtd"
   xmlns="http://www.w3.org/2000/svg"
   xmlns:svg="http://www.w3.org/2000/svg">
  <defs
     id="defs11" />
  <sodipodi:namedview
     id="namedview11"
     pagecolor="#e8e8e8"
     bordercolor="#101010"
     borderopacity="1"
     inkscape:showpageshadow="2"
     inkscape:pageopacity="0"
     inkscape:pagecheckerboard="0"
     inkscape:deskcolor="#d1d1d1"
     inkscape:document-units="pt"
     inkscape:zoom="0.93962723"
     inkscape:cx="361.84562"
     inkscape:cy="283.62311"
     inkscape:window-width="1920"
     inkscape:window-height="991"
     inkscape:window-x="-9"
     inkscape:window-y="-9"
     inkscape:window-maximized="1"
     inkscape:current-layer="svg11" />
  <path
     d="m 249.46327,2.9 c -4.5,2.7 -35.6,19.6 -86,46.6 -14.6,7.9 -34.8,18.7 -45,24.2 -10.2,5.5 -29.300005,15.9 -42.500005,23 -13.2,7.2 -34.8,18.7 -48,25.8 -28.09999969,15 -27.49999969,14.6 -27.49999969,16.2 0,1.6 -3.30000001,1.5 68.29999969,1.5 l 58.700005,-0.1 18.8,-17.3 c 10.3,-9.5 25.7,-23.6 34.2,-31.4 8.5,-7.7 23.8,-21.7 34,-31 10.2,-9.3 24,-21.8 30.8,-27.8 l 12.2,-10.9 V 10.8 c 0,-12.4 -0.2,-12.6 -8,-7.9 z"
     id="path1"
     style="fill:#000000;stroke:none;stroke-width:0.1" />
  <path
     d="m 280.46327,10.9 v 11 l 20.7,18.3 c 11.4,10.1 37.6,33.4 58.2,51.8 20.7,18.4 41.6,37.1 46.5,41.4 l 8.9,7.9 32.6,-0.6 c 17.9,-0.4 46.5,-0.7 63.4,-0.7 24.3,0 30.8,-0.3 30.5,-1.3 -0.3,-0.6 -3.1,-2.7 -6.4,-4.6 -7.3,-4.1 -70.4,-37.9 -103.4,-55.4 -13.5,-7.1 -38.2,-20.2 -55,-29.2 -71.2,-38 -93.3,-49.5 -94.6,-49.5 -1.1,0 -1.4,2.2 -1.4,10.9 z"
     id="path2"
     style="fill:#000000;stroke:none;stroke-width:0.1" />
  <path
     d="m 269.86327,68.1 c -0.3,0.6 -0.5,18.6 -0.3,40 l 0.4,39 -40.5,0.2 c -26,0.1 -40.6,0.6 -40.8,1.2 -0.1,0.7 14.1,1.1 40.9,1.3 l 41.2,0.2 -0.7,12.3 c -0.8,14.9 0.4,69.7 1.6,69.7 0.4,0 0.8,-18.5 0.8,-41 v -41 h 41.1 c 32.4,0 41,-0.3 40.7,-1.3 -0.4,-0.9 -9.7,-1.3 -41.1,-1.5 l -40.7,-0.2 v -40 c 0,-37.3 -0.3,-42.5 -2.6,-38.9 z"
     id="path3"
     style="fill:#000000;stroke:none;stroke-width:0.1" />
  <path
     d="m 0.06326531,158.9 c -0.3,0.4 0.5,1.7 1.69999999,2.8 3,2.7 103.8000047,57.9 195.7000047,107.1 4.7,2.5 19.8,10.8 33.5,18.3 13.8,7.5 25.3,13.5 25.8,13.2 0.4,-0.2 0.7,-5.7 0.7,-12.2 v -11.7 l -23.7,-21.5 c -13.1,-11.8 -35.7,-32.1 -50.3,-45.3 -14.6,-13.1 -33.1,-30.1 -41.2,-37.7 l -14.8,-13.9 H 64.063265 c -34.9,0 -63.69999969,0.4 -63.99999969,0.9 z"
     id="path4"
     style="fill:#000000;stroke:none;stroke-width:0.1" />
  <path
     d="m 368.26327,198.7 c -24.9,22.3 -48.9,43.8 -53.3,47.7 -4.4,3.9 -14,12.4 -21.2,19 l -13.3,11.9 v 11.3 c 0,6.2 0.4,11.6 1,11.9 0.5,0.3 4.4,-1.4 8.7,-3.8 4.3,-2.4 13.7,-7.6 20.8,-11.4 7.2,-3.9 21.6,-11.7 32,-17.3 10.5,-5.7 24.2,-13.1 30.5,-16.5 6.3,-3.5 28.6,-15.4 49.5,-26.5 20.9,-11.1 47,-25.1 58,-31 11,-5.9 22.9,-12.3 26.5,-14.2 33.4,-17.8 35.6,-19.1 34.5,-20.7 -0.4,-0.8 -20.3,-1.1 -64.5,-1.1 h -64 z"
     id="path5"
     style="fill:#000000;stroke:none;stroke-width:0.1" />
</svg>
