<?xml version="1.0" encoding="UTF-8" standalone="no"?>
<svg
   version="1.0"
   width="1080.000000pt"
   height="617.000000pt"
   viewBox="0 0 1080.000000 617.000000"
   preserveAspectRatio="xMidYMid meet"
   id="svg11"
   sodipodi:docname="medopz_logo_blanco.svg"
   inkscape:version="1.4.2 (f4327f4, 2025-05-13)"
   xmlns:inkscape="http://www.inkscape.org/namespaces/inkscape"
   xmlns:sodipodi="http://sodipodi.sourceforge.net/DTD/sodipodi-0.dtd"
   xmlns="http://www.w3.org/2000/svg"
   xmlns:svg="http://www.w3.org/2000/svg">
  <defs
     id="defs11" />
  <sodipodi:namedview
     id="namedview11"
     pagecolor="#131313"
     bordercolor="#101010"
     borderopacity="1"
     inkscape:showpageshadow="2"
     inkscape:pageopacity="0"
     inkscape:pagecheckerboard="0"
     inkscape:deskcolor="#d1d1d1"
     inkscape:document-units="pt"
     inkscape:zoom="0.93962723"
     inkscape:cx="720.49849"
     inkscape:cy="411.33333"
     inkscape:window-width="1920"
     inkscape:window-height="991"
     inkscape:window-x="-9"
     inkscape:window-y="-9"
     inkscape:window-maximized="1"
     inkscape:current-layer="svg11" />
  <g
     transform="translate(0.000000,617.000000) scale(0.100000,-0.100000)"
     fill="#000000"
     stroke="none"
     id="g11"
     style="fill:#ffffff">
    <path
       d="M5190 5161 c-45 -27 -356 -196 -860 -466 -146 -79 -348 -187 -450 -242 -102 -55 -293 -159 -425 -230 -132 -72 -348 -187 -480 -258 -281 -150 -275 -146 -275 -162 0 -16 -33 -15 683 -15 l587 1 188 173 c103 95 257 236 342 314 85 77 238 217 340 310 102 93 240 218 308 278 l122 109 0 109 c0 124 -2 126 -80 79z"
       id="path1"
       style="fill:#ffffff" />
    <path
       d="M5500 5081 l0 -110 207 -183 c114 -101 376 -334 582 -518 207 -184 416 -371 465 -414 l89 -79 326 6 c179 4 465 7 634 7 243 0 308 3 305 13 -3 6 -31 27 -64 46 -73 41 -704 379 -1034 554 -135 71 -382 202 -550 292 -712 380 -933 495 -946 495 -11 0 -14 -22 -14 -109z"
       id="path2"
       style="fill:#ffffff" />
    <path
       d="M5394 4509 c-3 -6 -5 -186 -3 -400 l4 -390 -405 -2 c-260 -1 -406 -6 -408 -12 -1 -7 141 -11 409 -13 l412 -2 -7 -123 c-8 -149 4 -697 16 -697 4 0 8 185 8 410 l0 410 411 0 c324 0 410 3 407 13 -4 9 -97 13 -411 15 l-407 2 0 400 c0 373 -3 425 -26 389z"
       id="path3"
       style="fill:#ffffff" />
    <path
       d="M2696 3601 c-3 -4 5 -17 17 -28 30 -27 1038 -579 1957 -1071 47 -25 198 -108 335 -183 138 -75 253 -135 258 -132 4 2 7 57 7 122 l0 117 -237 215 c-131 118 -357 321 -503 453 -146 131 -331 301 -412 377 l-148 139 -634 0 c-349 0 -637 -4 -640 -9z"
       id="path4"
       style="fill:#ffffff" />
    <path
       d="M6378 3203 c-249 -223 -489 -438 -533 -477 -44 -39 -140 -124 -212 -190 l-133 -119 0 -113 c0 -62 4 -116 10 -119 5 -3 44 14 87 38 43 24 137 76 208 114 72 39 216 117 320 173 105 57 242 131 305 165 63 35 286 154 495 265 209 111 470 251 580 310 110 59 229 123 265 142 334 178 356 191 345 207 -4 8 -203 11 -645 11 l-640 0 -452 -407z"
       id="path5"
       style="fill:#ffffff" />
    <path
       d="M2027 1504 c-4 -4 -7 -180 -7 -391 l0 -383 75 0 75 0 2 305 3 304 100 -116 c55 -64 165 -193 244 -286 l144 -169 22 23 c12 13 119 140 239 282 119 141 221 257 227 257 5 0 9 -120 9 -300 l0 -300 70 0 70 0 0 390 0 391 -102 -3 -102 -3 -213 -250 c-117 -137 -217 -250 -222 -250 -5 0 -103 113 -218 250 l-209 250 -100 3 c-55 1 -103 0 -107 -4z"
       id="path6"
       style="fill:#ffffff" />
    <path
       d="M3525 1498 c-3 -7 -4 -182 -3 -388 l3 -375 410 0 410 0 0 75 0 75 -335 0 -335 0 -3 77 -3 78 333 2 333 3 0 75 0 75 -332 3 -333 2 0 75 0 75 338 2 337 3 0 75 0 75 -408 3 c-321 2 -409 0 -412 -10z"
       id="path7"
       style="fill:#ffffff" />
    <path
       d="M4572 1123 l3 -388 295 -3 c179 -1 315 2 346 8 102 21 177 79 216 164 21 46 23 65 23 211 0 132 -3 168 -18 204 -30 73 -72 117 -145 153 l-67 33 -327 3 -328 3 2 -388z m664 214 c20 -10 41 -35 55 -64 21 -41 24 -63 23 -153 0 -118 -16 -167 -67 -204 -26 -19 -47 -21 -270 -27 -133 -3 -245 -4 -249 -2 -8 4 -11 456 -4 464 3 2 112 4 243 3 202 0 243 -3 269 -17z"
       id="path8"
       style="fill:#ffffff" />
    <path
       d="M5907 1499 c-92 -22 -176 -93 -207 -175 -18 -50 -20 -78 -20 -325 l0 -270 328 3 c319 3 328 4 379 27 65 29 124 91 149 157 17 44 19 77 19 319 l0 270 -305 2 c-168 0 -322 -3 -343 -8z m501 -324 c4 -287 8 -283 -343 -286 l-240 -1 0 178 c0 152 3 184 18 211 34 64 48 67 287 74 118 3 229 5 245 5 l30 -1 3 -180z"
       id="path9"
       style="fill:#ffffff" />
    <path
       d="M6778 1500 c-1 -5 -2 -181 0 -390 l2 -381 73 3 72 3 1 120 c1 66 2 137 3 158 l1 37 243 0 c290 0 313 5 394 85 67 67 83 120 83 267 l0 108 -434 0 c-280 0 -436 -4 -438 -10z m720 -175 c3 -38 -28 -89 -67 -110 -26 -13 -68 -15 -268 -13 l-238 3 -3 64 c-2 35 -1 69 1 75 3 8 90 11 288 11 l284 0 3 -30z"
       id="path10"
       style="fill:#ffffff" />
    <path
       d="M7862 1433 l3 -78 298 1 c163 1 297 -2 297 -6 0 -4 -66 -55 -147 -113 -82 -58 -215 -154 -298 -214 l-150 -108 0 -90 0 -90 420 0 420 0 0 75 0 75 -303 3 c-173 1 -302 6 -300 11 2 5 138 105 303 223 l300 214 0 84 0 85 -423 3 -423 2 3 -77z"
       id="path11"
       style="fill:#ffffff" />
  </g>
</svg>
