<svg xmlns="http://www.w3.org/2000/svg" style="display:none">
  <symbol id="icon-dashboard" viewBox="0 0 24 24" fill="none" stroke="currentColor" stroke-width="1.5" stroke-linecap="round" stroke-linejoin="round">
    <rect width="7" height="9" x="3" y="3" rx="1"/>
    <rect width="7" height="5" x="14" y="3" rx="1"/>
    <rect width="7" height="9" x="14" y="12" rx="1"/>
    <rect width="7" height="5" x="3" y="16" rx="1"/>
  </symbol>
  <symbol id="icon-waitingroom" viewBox="0 0 24 24" fill="none" stroke="currentColor" stroke-width="1.5" stroke-linecap="round" stroke-linejoin="round">
    <circle cx="12" cy="12" r="10"/>
    <polyline points="12 6 12 12 16 14"/>
  </symbol>
  <symbol id="icon-consultation" viewBox="0 0 24 24" fill="none" stroke="currentColor" stroke-width="1.5" stroke-linecap="round" stroke-linejoin="round">
    <path d="M4.8 2.3A.3.3 0 1 0 5 2H4a2 2 0 0 0-2 2v5a6 6 0 0 0 6 6v0a6 6 0 0 0 6-6V4a2 2 0 0 0-2-2h-1a.2.2 0 1 0 .3.3"/>
    <path d="M8 15v1a6 6 0 0 0 6 6v0a6 6 0 0 0 6-6V4a2 2 0 0 0-2-2h-1a.2.2 0 1 0 .3.3"/>
    <circle cx="20" cy="10" r="2"/>
  </symbol>
  <symbol id="icon-diagnosis" viewBox="0 0 24 24" fill="none" stroke="currentColor" stroke-width="1.5" stroke-linecap="round" stroke-linejoin="round">
    <path d="M12 2v4"/>
    <path d="M12 18v4"/>
    <path d="M4.93 4.93l2.83 2.83"/>
    <path d="M16.24 16.24l2.83 2.83"/>
    <path d="M2 12h4"/>
    <path d="M18 12h4"/>
    <path d="M4.93 19.07l2.83-2.83"/>
    <path d="M16.24 7.76l2.83-2.83"/>
    <circle cx="12" cy="12" r="4"/>
  </symbol>
  <symbol id="icon-surgery" viewBox="0 0 24 24" fill="none" stroke="currentColor" stroke-width="1.5" stroke-linecap="round" stroke-linejoin="round">
    <path d="M22 12h-4l-3 9L9 3l-3 9H2"/>
  </symbol>
  <symbol id="icon-hospitalization" viewBox="0 0 24 24" fill="none" stroke="currentColor" stroke-width="1.5" stroke-linecap="round" stroke-linejoin="round">
    <path d="M2 4v16"/>
    <path d="M2 8h18a2 2 0 0 1 2 2v10"/>
    <path d="M2 17h20"/>
    <path d="M6 8v9"/>
  </symbol>
  <symbol id="icon-patients" viewBox="0 0 24 24" fill="none" stroke="currentColor" stroke-width="1.5" stroke-linecap="round" stroke-linejoin="round">
    <path d="M16 21v-2a4 4 0 0 0-4-4H6a4 4 0 0 0-4 4v2"/>
    <circle cx="9" cy="7" r="4"/>
    <path d="M22 21v-2a4 4 0 0 0-3-3.87"/>
    <path d="M16 3.13a4 4 0 0 1 0 7.75"/>
  </symbol>
  <symbol id="icon-appointments" viewBox="0 0 24 24" fill="none" stroke="currentColor" stroke-width="1.5" stroke-linecap="round" stroke-linejoin="round">
    <rect width="18" height="18" x="3" y="4" rx="2" ry="2"/>
    <line x1="16" x2="16" y1="2" y2="6"/>
    <line x1="8" x2="8" y1="2" y2="6"/>
    <line x1="3" x2="21" y1="10" y2="10"/>
  </symbol>
  <symbol id="icon-payments" viewBox="0 0 24 24" fill="none" stroke="currentColor" stroke-width="1.5" stroke-linecap="round" stroke-linejoin="round">
    <rect width="20" height="14" x="2" y="5" rx="2"/>
    <line x1="2" x2="22" y1="10" y2="10"/>
  </symbol>
  <symbol id="icon-services" viewBox="0 0 24 24" fill="none" stroke="currentColor" stroke-width="1.5" stroke-linecap="round" stroke-linejoin="round">
    <path d="M12 2H2v10l9.29 9.29c.94.94 2.48.94 3.42 0l6.58-6.58c.94-.94.94-2.48 0-3.42L12 2Z"/>
    <path d="M7 7h.01"/>
  </symbol>
  <symbol id="icon-reports" viewBox="0 0 24 24" fill="none" stroke="currentColor" stroke-width="1.5" stroke-linecap="round" stroke-linejoin="round">
    <line x1="12" x2="12" y1="20" y2="10"/>
    <line x1="18" x2="18" y1="20" y2="4"/>
    <line x1="6" x2="6" y1="20" y2="16"/>
  </symbol>
  <symbol id="icon-settings" viewBox="0 0 24 24" fill="none" stroke="currentColor" stroke-width="1.5" stroke-linecap="round" stroke-linejoin="round">
    <path d="M12.22 2h-.44a2 2 0 0 0-2 2v.18a2 2 0 0 1-1 1.73l-.43.25a2 2 0 0 1-2 0l-.15-.08a2 2 0 0 0-2.73.73l-.22.38a2 2 0 0 0 .73 2.73l.15.1a2 2 0 0 1 1 1.72v.51a2 2 0 0 1-1 1.74l-.15.09a2 2 0 0 0-.73 2.73l.22.38a2 2 0 0 0 2.73.73l.15-.08a2 2 0 0 1 2 0l.43.25a2 2 0 0 1 1 1.73V20a2 2 0 0 0 2 2h.44a2 2 0 0 0 2-2v-.18a2 2 0 0 1 1-1.73l.43-.25a2 2 0 0 1 2 0l.15.08a2 2 0 0 0 2.73-.73l.22-.39a2 2 0 0 0-.73-2.73l-.15-.08a2 2 0 0 1-1-1.74v-.5a2 2 0 0 1 1-1.74l.15-.09a2 2 0 0 0 .73-2.73l-.22-.38a2 2 0 0 0-2.73-.73l-.15.08a2 2 0 0 1-2 0l-.43-.25a2 2 0 0 1-1-1.73V4a2 2 0 0 0-2-2z"/>
    <circle cx="12" cy="12" r="3"/>
  </symbol>
  <symbol id="icon-marketplace" viewBox="0 0 24 24" fill="none" stroke="currentColor" stroke-width="1.5" stroke-linecap="round" stroke-linejoin="round">
    <path d="M12 2H2v10l9.29 9.29c.94.94 2.48.94 3.42 0l6.58-6.58c.94-.94.94-2.48 0-3.42L12 2Z"/>
    <path d="M7 7h.01"/>
  </symbol>
  <symbol id="icon-record" viewBox="0 0 24 24" fill="none" stroke="currentColor" stroke-width="1.5" stroke-linecap="round" stroke-linejoin="round">
    <path d="M4 22h14a2 2 0 0 0 2-2V7.5L14.5 2H6a2 2 0 0 0-2 2v4"/>
    <polyline points="14 2 14 8 20 8"/>
    <path d="M12 18v-6"/>
    <path d="M9 15h6"/>
  </symbol>
  <symbol id="icon-usercheck" viewBox="0 0 24 24" fill="none" stroke="currentColor" stroke-width="1.5" stroke-linecap="round" stroke-linejoin="round">
    <path d="M16 21v-2a4 4 0 0 0-4-4H6a4 4 0 0 0-4 4v2"/>
    <circle cx="9" cy="7" r="4"/>
    <polyline points="16 11 18 13 22 9"/>
  </symbol>
  <symbol id="icon-heart" viewBox="0 0 24 24" fill="none" stroke="currentColor" stroke-width="1.5" stroke-linecap="round" stroke-linejoin="round">
    <path d="M19 14c1.49-1.46 3-3.21 3-5.5A5.5 5.5 0 0 0 16.5 3c-1.76 0-3 .5-4.5 2-1.5-1.5-2.74-2-4.5-2A5.5 5.5 0 0 0 2 8.5c0 2.3 1.5 4.05 3 5.5l7 7Z"/>
  </symbol>
  <symbol id="icon-bcv" viewBox="0 0 24 24" fill="none" stroke="currentColor" stroke-width="1.5" stroke-linecap="round" stroke-linejoin="round">
    <circle cx="12" cy="12" r="10"/>
    <path d="M12 6v6l4 2"/>
  </symbol>
  <symbol id="icon-bancaribe" viewBox="0 0 24 24" fill="none" stroke="currentColor" stroke-width="1.5" stroke-linecap="round" stroke-linejoin="round">
    <rect width="20" height="14" x="2" y="5" rx="2"/>
    <line x1="2" x2="22" y1="10" y2="10"/>
  </symbol>
  <symbol id="icon-wallet" viewBox="0 0 24 24" fill="none" stroke="currentColor" stroke-width="1.5" stroke-linecap="round" stroke-linejoin="round">
    <path d="M21 12V7H5a2 2 0 0 1 0-4h14v4"/>
    <path d="M3 5v14a2 2 0 0 0 2 2h16v-5"/>
    <circle cx="18" cy="16" r="2"/>
  </symbol>
</svg>